<svg xmlns="http://www.w3.org/2000/svg" width="128" height="128" viewBox="0 0 128 128" role="img" aria-labelledby="title desc">
  <title id="title">SMSBridge icon</title>
  <desc id="desc">A bridge-shaped chat mark for the SMSBridge NuGet package.</desc>
  <defs>
    <linearGradient id="background" x1="16" y1="12" x2="112" y2="116" gradientUnits="userSpaceOnUse">
      <stop offset="0" stop-color="#155EEF" />
      <stop offset="1" stop-color="#00A6A6" />
    </linearGradient>
    <linearGradient id="bridge" x1="27" y1="75" x2="101" y2="75" gradientUnits="userSpaceOnUse">
      <stop offset="0" stop-color="#EAF7FF" />
      <stop offset="1" stop-color="#FFFFFF" />
    </linearGradient>
    <filter id="shadow" x="6" y="6" width="116" height="116" color-interpolation-filters="sRGB" filterUnits="userSpaceOnUse">
      <feDropShadow dx="0" dy="6" stdDeviation="5" flood-color="#06314B" flood-opacity=".24" />
    </filter>
  </defs>

  <rect width="128" height="128" rx="28" fill="#071B2F" />
  <rect x="10" y="10" width="108" height="108" rx="24" fill="url(#background)" filter="url(#shadow)" />

  <path d="M36 69c5-17 15-26 28-26s23 9 28 26" fill="none" stroke="#FFFFFF" stroke-linecap="round" stroke-width="9" />
  <path d="M30 78h68" fill="none" stroke="url(#bridge)" stroke-linecap="round" stroke-width="10" />
  <path d="M42 78v18M64 78v18M86 78v18" fill="none" stroke="#CFFAFE" stroke-linecap="round" stroke-width="7" />
  <path d="M30 99h68" fill="none" stroke="#FFFFFF" stroke-linecap="round" stroke-width="8" />

  <path d="M42 27h44c8 0 14 6 14 14v14c0 8-6 14-14 14H68L53 81c-2 2-5 1-5-2V69h-6c-8 0-14-6-14-14V41c0-8 6-14 14-14Z" fill="#FFFFFF" opacity=".97" />
  <circle cx="48" cy="48" r="5" fill="#155EEF" />
  <circle cx="64" cy="48" r="5" fill="#00A6A6" />
  <circle cx="80" cy="48" r="5" fill="#155EEF" />
</svg>
